<svg width="63" height="13" viewBox="0 0 63 13" fill="none" xmlns="http://www.w3.org/2000/svg">
<path d="M1.6 10.22C2.10667 10.22 2.66 10.12 3.26 9.92C3.87333 9.70667 4.40667 9.48667 4.86 9.26C5.32667 9.03333 5.86667 8.85333 6.48 8.72C7.09333 8.57333 7.68 8.54667 8.24 8.64C8.01333 9.02667 7.73333 9.30667 7.4 9.48C7.06667 9.64 6.55333 9.82 5.86 10.02C5.79333 10.0333 5.74 10.0467 5.7 10.06C5.42 10.14 4.86 10.32 4.02 10.6C3.18 10.88 2.52667 11.0733 2.06 11.18C1.5 11.3 1.06 11.22 0.74 10.94C0.42 10.66 0.233333 10.28 0.18 9.8C0.14 9.30667 0.173333 8.79333 0.28 8.26C0.4 7.72667 0.573333 7.27333 0.8 6.9C1.13333 6.35333 1.59333 5.78 2.18 5.18C2.78 4.56667 3.32 4.14 3.8 3.9C3.88 3.87333 4.02 3.80667 4.22 3.7C4.42 3.58 4.58667 3.49333 4.72 3.44C4.86667 3.37333 5 3.34 5.12 3.34C5.30667 3.34 5.44 3.42667 5.52 3.6C5.6 3.77333 5.58667 3.93333 5.48 4.08C5.42667 4.17333 5.37333 4.24667 5.32 4.3C5.28 4.35333 5.21333 4.41333 5.12 4.48C5.02667 4.53333 4.95333 4.57333 4.9 4.6C4.86 4.62667 4.74667 4.68 4.56 4.76C4.38667 4.84 4.25333 4.90667 4.16 4.96C3.74667 5.14667 3.38667 5.37333 3.08 5.64C2.78667 5.89333 2.47333 6.21333 2.14 6.6C2.02 6.73333 1.91333 6.86667 1.82 7C1.74 7.12 1.67333 7.22667 1.62 7.32C1.56667 7.4 1.51333 7.51333 1.46 7.66C1.40667 7.79333 1.36667 7.89333 1.34 7.96C1.31333 8.01333 1.26667 8.14 1.2 8.34C1.14667 8.52667 1.10667 8.66667 1.08 8.76C1.02667 8.92 0.986667 9.08667 0.96 9.26C0.946667 9.42 0.946667 9.58 0.96 9.74C0.986667 9.88667 1.05333 10.0067 1.16 10.1C1.26667 10.18 1.41333 10.22 1.6 10.22ZM9.01281 1.86C8.78615 1.27333 8.85948 0.793333 9.23281 0.42C9.45948 0.406666 9.63281 0.453332 9.75281 0.559999C9.87281 0.653333 9.98615 0.84 10.0928 1.12C10.2528 1.57333 10.3328 2.29333 10.3328 3.28C10.3328 4.30667 10.3728 5.53333 10.4528 6.96C10.5461 8.38667 10.5928 9.4 10.5928 10C10.5928 10.6933 10.5061 11.24 10.3328 11.64C9.97281 11.48 9.71948 11.16 9.57281 10.68C9.42615 10.2 9.35948 9.72667 9.37281 9.26C9.38615 8.78 9.41948 8.18 9.47281 7.46C9.52615 6.72667 9.55281 6.19333 9.55281 5.86C9.55281 5.68667 9.54615 5.40667 9.53281 5.02C9.53281 4.62 9.52615 4.36667 9.51281 4.26C9.51281 4.15333 9.49948 3.97333 9.47281 3.72C9.45948 3.46667 9.43281 3.27333 9.39281 3.14C9.35281 2.99333 9.29948 2.81333 9.23281 2.6C9.17948 2.37333 9.10615 2.12667 9.01281 1.86ZM13.4969 11.1C13.0569 11.3933 12.6969 11.4667 12.4169 11.32C12.1369 11.16 11.9969 10.78 11.9969 10.18C11.9969 9.40667 12.4502 8.45333 13.3569 7.32C14.2635 6.17333 15.0702 5.4 15.7769 5C16.1502 4.8 16.4035 4.68667 16.5369 4.66C16.6702 4.62 16.9435 4.63333 17.3569 4.7C18.1835 4.80667 18.5835 5.36 18.5569 6.36C18.5302 6.89333 18.3969 7.4 18.1569 7.88C17.9169 8.34667 17.5902 8.75333 17.1769 9.1C16.7635 9.44667 16.3235 9.75333 15.8569 10.02C15.4035 10.2733 14.9035 10.5 14.3569 10.7C14.3569 10.7 14.3102 10.72 14.2169 10.76C14.1369 10.7867 14.0302 10.8333 13.8969 10.9C13.7769 10.9533 13.6435 11.02 13.4969 11.1ZM12.9369 10.06C13.4969 10.1 14.1569 9.93333 14.9169 9.56C15.6902 9.18667 16.3569 8.7 16.9169 8.1C17.4769 7.5 17.7302 6.94 17.6769 6.42C17.6502 6.18 17.6035 6.00667 17.5369 5.9C17.4835 5.78 17.3702 5.72 17.1969 5.72C17.0102 5.72 16.7969 5.78667 16.5569 5.92C16.3302 6.05333 16.0502 6.24 15.7169 6.48C15.3835 6.72 15.1902 6.86 15.1369 6.9C14.7502 7.15333 14.3235 7.62 13.8569 8.3C13.3902 8.96667 13.0835 9.55333 12.9369 10.06ZM20.7202 10.22C21.2402 10.2867 21.7735 10.2533 22.3202 10.12C22.8802 9.97333 23.5602 9.73333 24.3602 9.4C25.1602 9.05333 25.6335 8.85333 25.7802 8.8C25.8602 8.8 26.0068 8.73333 26.2202 8.6C26.4468 8.45333 26.6602 8.31333 26.8602 8.18C27.0735 8.04667 27.3002 7.94667 27.5402 7.88C27.7935 7.81333 27.9868 7.85333 28.1202 8C28.2668 8.14667 28.3802 8.30667 28.4602 8.48C28.1668 8.64 27.8135 8.83333 27.4002 9.06C26.9868 9.28667 26.7002 9.44667 26.5402 9.54C26.3935 9.62 26.1802 9.73333 25.9002 9.88C25.6335 10.0133 25.3735 10.14 25.1202 10.26C24.8668 10.3667 24.5668 10.4933 24.2202 10.64C23.0068 11.1467 21.7802 11.4533 20.5402 11.56C20.1935 11.6 19.9402 11.5067 19.7802 11.28C19.6202 11.04 19.5468 10.7333 19.5602 10.36C19.5868 9.86667 19.7268 9.36667 19.9802 8.86C20.2468 8.34 20.5868 7.86667 21.0002 7.44C21.4135 7.01333 21.8335 6.63333 22.2602 6.3C22.6868 5.96667 23.1202 5.67333 23.5602 5.42C23.9068 5.20667 24.2068 5.16 24.4602 5.28C24.7268 5.4 24.8602 5.65333 24.8602 6.04C24.8602 6.21333 24.7935 6.36667 24.6602 6.5C24.5268 6.63333 24.3802 6.73333 24.2202 6.8C24.0602 6.86667 23.8535 6.94667 23.6002 7.04C23.3468 7.12 23.1735 7.18 23.0802 7.22C22.6135 7.42 22.1202 7.84 21.6002 8.48C21.0935 9.12 20.8002 9.7 20.7202 10.22ZM30.0025 5.8C29.9225 3.85333 29.7425 2.31333 29.4625 1.18C29.4758 0.74 29.6425 0.433333 29.9625 0.26L30.0225 0.34C30.0625 0.379999 30.0958 0.406666 30.1225 0.42C30.1625 0.433333 30.2158 0.433333 30.2825 0.42C30.4425 0.486666 30.5825 0.653333 30.7025 0.919999C30.8225 1.18667 30.8892 1.44 30.9025 1.68C30.9425 2.24 30.9958 3.08667 31.0625 4.22C31.1292 5.34 31.1825 6.18 31.2225 6.74C31.3692 6.66 31.4825 6.6 31.5625 6.56C31.6558 6.50667 31.7425 6.46 31.8225 6.42C31.9025 6.36667 31.9758 6.31333 32.0425 6.26C32.1092 6.20667 32.1692 6.16667 32.2225 6.14C32.2758 6.1 32.3492 6.03333 32.4425 5.94C32.5492 5.84667 32.6292 5.77333 32.6825 5.72C32.7492 5.66667 32.8625 5.56 33.0225 5.4C33.1958 5.24 33.3358 5.10667 33.4425 5C33.5492 4.89333 33.6692 4.74667 33.8025 4.56C33.9492 4.37333 34.0825 4.22 34.2025 4.1C34.3225 3.98 34.4625 3.9 34.6225 3.86C34.7158 3.83333 34.8025 3.9 34.8825 4.06C34.9758 4.20667 35.0292 4.37333 35.0425 4.56C35.0558 4.64 35.0358 4.72667 34.9825 4.82C34.9425 4.91333 34.8958 5 34.8425 5.08C34.8025 5.14667 34.7292 5.23333 34.6225 5.34C34.5158 5.43333 34.4292 5.50667 34.3625 5.56C34.3092 5.61333 34.2292 5.68667 34.1225 5.78C34.0158 5.87333 33.9492 5.93333 33.9225 5.96C33.5758 6.24 33.2692 6.5 33.0025 6.74C32.7492 6.96667 32.5758 7.12 32.4825 7.2C32.4025 7.28 32.2758 7.38667 32.1025 7.52C31.9425 7.64 31.7025 7.80667 31.3825 8.02C31.9158 8.32667 32.8558 8.72 34.2025 9.2C35.5625 9.66667 36.4625 10.0067 36.9025 10.22C37.1025 10.3133 37.2492 10.4533 37.3425 10.64C37.4358 10.8133 37.4425 10.9733 37.3625 11.12C37.2825 11.2533 37.1225 11.3333 36.8825 11.36C36.8025 11.3733 36.6958 11.36 36.5625 11.32C36.4425 11.28 36.2892 11.22 36.1025 11.14C35.9292 11.06 35.8292 11.0133 35.8025 11C35.7358 10.9733 35.5358 10.8933 35.2025 10.76C34.8692 10.6267 34.5625 10.5133 34.2825 10.42C34.0158 10.3133 33.7092 10.2 33.3625 10.08C33.0292 9.94667 32.7225 9.84667 32.4425 9.78C32.1758 9.71333 31.9625 9.68 31.8025 9.68C31.5625 9.68 31.3158 9.70667 31.0625 9.76C31.2225 10.3733 31.1692 10.8933 30.9025 11.32C30.3825 11.1067 30.0625 10.76 29.9425 10.28C29.7425 9.42667 29.6158 8.76667 29.5625 8.3C29.5892 8.15333 29.6492 7.91333 29.7425 7.58C29.8358 7.24667 29.9025 6.94 29.9425 6.66C29.9958 6.38 30.0158 6.09333 30.0025 5.8ZM50.5148 3.58C50.2748 3.68667 50.0348 3.78 49.7948 3.86C49.5682 3.92667 49.3215 3.97333 49.0548 4C48.8015 4.02667 48.5815 3.98667 48.3948 3.88C48.2082 3.76 48.0882 3.56667 48.0348 3.3C48.0082 3.14 48.1215 2.98 48.3748 2.82C48.6282 2.66 48.9148 2.53333 49.2348 2.44C49.5682 2.33333 49.8348 2.29333 50.0348 2.32C50.1948 2.33333 50.3748 2.28 50.5748 2.16C50.7882 2.04 50.9748 1.98667 51.1348 2C51.4948 2.10667 51.7482 2.18 51.8948 2.22C52.0548 2.24667 52.2615 2.28 52.5148 2.32C52.7815 2.34667 53.0948 2.36 53.4548 2.36C53.8682 2.36 54.1615 2.42667 54.3348 2.56C54.5082 2.68 54.6548 2.92 54.7748 3.28C54.6815 3.29333 54.1482 3.30667 53.1748 3.32C52.2415 3.34667 51.7748 3.64667 51.7748 4.22C51.7882 4.68667 51.7615 5.66 51.6948 7.14C51.6415 8.62 51.6148 9.38667 51.6148 9.44C51.6148 9.70667 51.6815 9.92 51.8148 10.08C51.9482 10.2267 52.1415 10.32 52.3948 10.36C52.6615 10.3867 52.9148 10.3933 53.1548 10.38C53.3948 10.3667 53.6815 10.34 54.0148 10.3C54.3615 10.2467 54.6148 10.22 54.7748 10.22C54.5882 10.46 54.3282 10.66 53.9948 10.82C53.6615 10.9667 53.3415 11.0733 53.0348 11.14C52.7415 11.2067 52.3415 11.2867 51.8348 11.38C51.3282 11.4733 50.9415 11.5533 50.6748 11.62C49.6482 11.8733 48.8748 12.0533 48.3548 12.16C48.1815 12.1867 48.0482 12.1267 47.9548 11.98C47.8615 11.8333 47.8082 11.66 47.7948 11.46C47.7948 11.26 47.9148 11.12 48.1548 11.04C48.3948 10.96 48.7082 10.92 49.0948 10.92C49.4948 10.9067 49.7548 10.8867 49.8748 10.86C50.3282 10.74 50.5548 10.2867 50.5548 9.5C50.5548 9.47333 50.5548 9.43333 50.5548 9.38C50.5548 9.32667 50.5548 9.26667 50.5548 9.2C50.5548 9.13333 50.5482 9.06667 50.5348 9C50.5348 8.93333 50.5282 8.86667 50.5148 8.8C50.5148 8.72 50.5148 8.65333 50.5148 8.6C50.5148 8.53333 50.5082 8.47333 50.4948 8.42C50.4948 8.36667 50.4948 8.32 50.4948 8.28C50.4948 8.22667 50.4948 8.19333 50.4948 8.18V8.14C50.4948 8.03333 50.5548 7.46 50.6748 6.42C50.7948 5.36667 50.8082 4.65333 50.7148 4.28C50.6215 3.92 50.5548 3.68667 50.5148 3.58ZM56.5213 4.06C56.5746 4.14 56.6479 4.26 56.7413 4.42C56.8479 4.56667 56.9213 4.67333 56.9613 4.74C57.0013 4.80667 57.0413 4.90667 57.0813 5.04C57.1213 5.17333 57.1413 5.32 57.1413 5.48C57.1413 5.57333 57.1413 5.70667 57.1413 5.88C57.1546 6.04 57.1613 6.16 57.1613 6.24C57.1613 6.30667 57.1679 6.40667 57.1813 6.54C57.1946 6.66 57.2079 6.77333 57.2213 6.88C57.2479 6.98667 57.2746 7.1 57.3013 7.22C57.3279 7.20667 57.5079 7.01333 57.8413 6.64C58.1746 6.26667 58.4613 5.99333 58.7013 5.82C58.9413 5.64667 59.1679 5.56 59.3813 5.56C59.5279 5.56 59.6479 5.6 59.7413 5.68C59.8479 5.74667 59.9213 5.81333 59.9613 5.88C60.0013 5.94667 60.0679 6.08 60.1613 6.28C60.2546 6.46667 60.3613 7.02 60.4813 7.94C60.6146 8.84667 60.7146 9.38667 60.7813 9.56C60.8346 9.92 61.5213 10.1933 62.8413 10.38C62.7746 10.7 62.5546 10.96 62.1813 11.16C61.8079 11.36 61.4013 11.44 60.9613 11.4C60.5213 11.3467 60.2013 11.1667 60.0013 10.86C59.7613 10.4867 59.6079 10.04 59.5413 9.52C59.3813 8.02667 59.2679 7.20667 59.2013 7.06C57.7479 8.07333 57.0079 9.6 56.9813 11.64C56.7013 11.6133 56.4813 11.5067 56.3213 11.32C56.1746 11.1333 56.0879 10.8933 56.0613 10.6C56.0346 10.2933 56.0279 10 56.0413 9.72C56.0546 9.42667 56.0813 9.09333 56.1213 8.72C56.1746 8.33333 56.2013 8.04667 56.2013 7.86C56.2013 7.55333 56.1546 7.08 56.0613 6.44C55.9813 5.8 55.9679 5.30667 56.0213 4.96C56.0746 4.6 56.2413 4.3 56.5213 4.06Z" fill="#939393"/>
</svg>
